<?xml version="1.0" standalone="no"?>
<!DOCTYPE svg PUBLIC "-//W3C//DTD SVG 20010904//EN"
 "http://www.w3.org/TR/2001/REC-SVG-20010904/DTD/svg10.dtd">
<svg version="1.0" xmlns="http://www.w3.org/2000/svg"
 width="48.000000pt" height="48.000000pt" viewBox="0 0 48.000000 48.000000"
 preserveAspectRatio="xMidYMid meet">
<metadata>
Created by potrace 1.15, written by Peter Selinger 2001-2017
</metadata>
<g transform="translate(0.000000,48.000000) scale(0.100000,-0.100000)"
fill="#0000FF" stroke="none">
<path d="M401 424 c-19 -22 -28 -25 -60 -20 -44 7 -68 -8 -73 -44 -2 -14 -11
-26 -21 -28 -29 -6 -105 28 -110 49 -4 13 -14 19 -35 19 -31 0 -42 -14 -42
-56 0 -15 -11 -32 -30 -46 -38 -27 -38 -63 -1 -63 20 0 26 7 35 39 15 52 56
65 122 40 24 -9 44 -20 44 -24 0 -9 -65 -60 -95 -75 -11 -6 -21 -19 -23 -30
-2 -11 -20 -34 -40 -51 -25 -22 -33 -36 -29 -48 9 -23 51 -17 55 8 2 10 16 29
30 42 22 19 34 23 62 18 18 -3 39 -11 45 -18 5 -7 22 -20 38 -29 15 -10 27
-26 27 -36 0 -23 28 -35 46 -20 19 16 17 38 -3 46 -43 16 -44 58 -1 93 21 18
29 32 25 43 -10 27 -45 20 -62 -12 -18 -36 -87 -53 -112 -28 -14 13 -13 17 10
37 14 13 36 28 49 34 13 6 29 24 36 39 7 15 21 27 31 27 24 0 69 -49 73 -80 2
-20 9 -25 32 -25 36 0 56 27 40 53 -6 9 -21 17 -32 17 -12 0 -35 14 -51 29
-40 39 -26 61 32 52 45 -8 67 5 67 39 0 22 -17 35 -44 35 -7 0 -23 -12 -35
-26z"/>
</g>
</svg>
