<svg version="1.1" viewBox="0.0 0.0 377.9527559055118 377.9527559055118" fill="none" stroke="none" stroke-linecap="square" stroke-miterlimit="10" xmlns:xlink="http://www.w3.org/1999/xlink" xmlns="http://www.w3.org/2000/svg"><clipPath id="p.0"><path d="m0 0l377.95276 0l0 377.95276l-377.95276 0l0 -377.95276z" clip-rule="nonzero"/></clipPath><g clip-path="url(#p.0)"><path fill="#000000" fill-opacity="0.0" d="m0 0l377.95276 0l0 377.95276l-377.95276 0z" fill-rule="evenodd"/><path fill="#000000" d="m153.60144 218.45395l9.121567 9.837692l9.121582 -9.837692l5.343094 5.762558l-9.121582 9.8377075l9.121582 9.837692l-5.343094 5.762558l-9.121582 -9.837692l-9.121567 9.837692l-5.343094 -5.762558l9.121582 -9.837692l-9.121582 -9.8377075z" fill-rule="evenodd"/><path stroke="#000000" stroke-width="1.0" stroke-linejoin="round" stroke-linecap="butt" stroke-dasharray="4.0,3.0" d="m153.60144 218.45395l9.121567 9.837692l9.121582 -9.837692l5.343094 5.762558l-9.121582 9.8377075l9.121582 9.837692l-5.343094 5.762558l-9.121582 -9.837692l-9.121567 9.837692l-5.343094 -5.762558l9.121582 -9.837692l-9.121582 -9.8377075z" fill-rule="evenodd"/><path fill="#000000" fill-opacity="0.0" d="m44.176132 87.9662l42.14173 0l0 34.078735l-42.14173 0z" fill-rule="evenodd"/><path fill="#000000" d="m65.78509 109.52557l0 -2.0625l-3.7187538 0l0 -0.96875l3.9218788 -5.5625l0.859375 0l0 5.5625l1.15625 0l0 0.96875l-1.15625 0l0 2.0625l-1.0625 0zm0 -3.03125l0 -3.859375l-2.6875038 3.859375l2.6875038 0z" fill-rule="nonzero"/><path fill="#000000" d="m185.69218 123.95667l9.121582 9.8377l9.121567 -9.8377l5.343094 5.7625656l-9.121582 9.837692l9.121582 9.8377075l-5.343094 5.762558l-9.121567 -9.837692l-9.121582 9.837692l-5.343094 -5.762558l9.121582 -9.8377075l-9.121582 -9.837692z" fill-rule="evenodd"/><path stroke="#000000" stroke-width="1.0" stroke-linejoin="round" stroke-linecap="butt" stroke-dasharray="4.0,3.0" d="m185.69218 123.95667l9.121582 9.8377l9.121567 -9.8377l5.343094 5.7625656l-9.121582 9.837692l9.121582 9.8377075l-5.343094 5.762558l-9.121567 -9.837692l-9.121582 9.837692l-5.343094 -5.762558l9.121582 -9.8377075l-9.121582 -9.837692z" fill-rule="evenodd"/><path fill="#000000" d="m238.8551 221.65335l9.121582 9.837692l9.121582 -9.837692l5.3430786 5.762558l-9.121567 9.837692l9.121567 9.837692l-5.3430786 5.7625732l-9.121582 -9.837692l-9.121582 9.837692l-5.3430786 -5.7625732l9.121567 -9.837692l-9.121567 -9.837692z" fill-rule="evenodd"/><path stroke="#000000" stroke-width="1.0" stroke-linejoin="round" stroke-linecap="butt" stroke-dasharray="4.0,3.0" d="m238.8551 221.65335l9.121582 9.837692l9.121582 -9.837692l5.3430786 5.762558l-9.121567 9.837692l9.121567 9.837692l-5.3430786 5.7625732l-9.121582 -9.837692l-9.121582 9.837692l-5.3430786 -5.7625732l9.121567 -9.837692l-9.121567 -9.837692z" fill-rule="evenodd"/><path fill="#000000" d="m92.969376 243.29065l9.121574 9.837692l9.121574 -9.837692l5.343094 5.762558l-9.121574 9.837692l9.121574 9.8377075l-5.343094 5.7625732l-9.121574 -9.8377075l-9.121574 9.8377075l-5.3430862 -5.7625732l9.121574 -9.8377075l-9.121574 -9.837692z" fill-rule="evenodd"/><path stroke="#000000" stroke-width="1.0" stroke-linejoin="round" stroke-linecap="butt" stroke-dasharray="4.0,3.0" d="m92.969376 243.29065l9.121574 9.837692l9.121574 -9.837692l5.343094 5.762558l-9.121574 9.837692l9.121574 9.8377075l-5.343094 5.7625732l-9.121574 -9.8377075l-9.121574 9.8377075l-5.3430862 -5.7625732l9.121574 -9.8377075l-9.121574 -9.837692z" fill-rule="evenodd"/><path fill="#000000" d="m56.124863 114.38067l9.121574 9.837692l9.121574 -9.837692l5.343094 5.7625656l-9.121574 9.837692l9.121574 9.837692l-5.343094 5.7625732l-9.121574 -9.837692l-9.121574 9.837692l-5.34309 -5.7625732l9.121574 -9.837692l-9.121574 -9.837692z" fill-rule="evenodd"/><path stroke="#000000" stroke-width="1.0" stroke-linejoin="round" stroke-linecap="butt" stroke-dasharray="4.0,3.0" d="m56.124863 114.38067l9.121574 9.837692l9.121574 -9.837692l5.343094 5.7625656l-9.121574 9.837692l9.121574 9.837692l-5.343094 5.7625732l-9.121574 -9.837692l-9.121574 9.837692l-5.34309 -5.7625732l9.121574 -9.837692l-9.121574 -9.837692z" fill-rule="evenodd"/><path fill="#000000" d="m238.8551 19.01395l9.121582 9.837694l9.121582 -9.837694l5.3430786 5.7625675l-9.121567 9.837694l9.121567 9.837696l-5.3430786 5.7625656l-9.121582 -9.837692l-9.121582 9.837692l-5.3430786 -5.7625656l9.121567 -9.837696l-9.121567 -9.837694z" fill-rule="evenodd"/><path stroke="#000000" stroke-width="1.0" stroke-linejoin="round" stroke-linecap="butt" stroke-dasharray="4.0,3.0" d="m238.8551 19.01395l9.121582 9.837694l9.121582 -9.837694l5.3430786 5.7625675l-9.121567 9.837694l9.121567 9.837696l-5.3430786 5.7625656l-9.121582 -9.837692l-9.121582 9.837692l-5.3430786 -5.7625656l9.121567 -9.837696l-9.121567 -9.837694z" fill-rule="evenodd"/><path fill="#000000" d="m336.71692 97.732086l9.121582 9.8377l9.121582 -9.8377l5.3430786 5.7625732l-9.121582 9.837692l9.121582 9.837692l-5.3430786 5.7625732l-9.121582 -9.8377l-9.121582 9.8377l-5.3430786 -5.7625732l9.1215515 -9.837692l-9.1215515 -9.837692z" fill-rule="evenodd"/><path stroke="#000000" stroke-width="1.0" stroke-linejoin="round" stroke-linecap="butt" stroke-dasharray="4.0,3.0" d="m336.71692 97.732086l9.121582 9.8377l9.121582 -9.8377l5.3430786 5.7625732l-9.121582 9.837692l9.121582 9.837692l-5.3430786 5.7625732l-9.121582 -9.8377l-9.121582 9.8377l-5.3430786 -5.7625732l9.1215515 -9.837692l-9.1215515 -9.837692z" fill-rule="evenodd"/><path fill="#000000" d="m292.01804 327.71365l9.1215515 9.837677l9.121582 -9.837677l5.343109 5.7625427l-9.121582 9.8377075l9.121582 9.8377075l-5.343109 5.7625427l-9.121582 -9.837677l-9.1215515 9.837677l-5.343109 -5.7625427l9.121582 -9.8377075l-9.121582 -9.8377075z" fill-rule="evenodd"/><path stroke="#000000" stroke-width="1.0" stroke-linejoin="round" stroke-linecap="butt" stroke-dasharray="4.0,3.0" d="m292.01804 327.71365l9.1215515 9.837677l9.121582 -9.837677l5.343109 5.7625427l-9.121582 9.8377075l9.121582 9.8377075l-5.343109 5.7625427l-9.121582 -9.837677l-9.1215515 9.837677l-5.343109 -5.7625427l9.121582 -9.8377075l-9.121582 -9.8377075z" fill-rule="evenodd"/><path fill="#000000" d="m22.971907 317.06244l9.121576 9.837677l9.121574 -9.837677l5.34309 5.7625427l-9.121574 9.8377075l9.121574 9.837677l-5.34309 5.7625732l-9.121574 -9.837677l-9.121576 9.837677l-5.34309 -5.7625732l9.121574 -9.837677l-9.121574 -9.8377075z" fill-rule="evenodd"/><path stroke="#000000" stroke-width="1.0" stroke-linejoin="round" stroke-linecap="butt" stroke-dasharray="4.0,3.0" d="m22.971907 317.06244l9.121576 9.837677l9.121574 -9.837677l5.34309 5.7625427l-9.121574 9.8377075l9.121574 9.837677l-5.34309 5.7625732l-9.121574 -9.837677l-9.121576 9.837677l-5.34309 -5.7625732l9.121574 -9.837677l-9.121574 -9.8377075z" fill-rule="evenodd"/><path fill="#000000" d="m98.35898 57.037582l9.121574 9.837692l9.121574 -9.837692l5.343094 5.7625694l-9.121574 9.837696l9.121574 9.837692l-5.343094 5.7625656l-9.121574 -9.837692l-9.121574 9.837692l-5.343094 -5.7625656l9.121582 -9.837692l-9.121582 -9.837696z" fill-rule="evenodd"/><path stroke="#000000" stroke-width="1.0" stroke-linejoin="round" stroke-linecap="butt" stroke-dasharray="4.0,3.0" d="m98.35898 57.037582l9.121574 9.837692l9.121574 -9.837692l5.343094 5.7625694l-9.121574 9.837696l9.121574 9.837692l-5.343094 5.7625656l-9.121574 -9.837692l-9.121574 9.837692l-5.343094 -5.7625656l9.121582 -9.837692l-9.121582 -9.837696z" fill-rule="evenodd"/><path fill="#000000" fill-opacity="0.0" d="m173.74345 96.2915l42.14174 0l0 34.078743l-42.14174 0z" fill-rule="evenodd"/><path fill="#000000" d="m191.9774 115.58524l1.0625 -0.140625q0.171875 0.890625 0.609375 1.296875q0.4375 0.390625 1.0625 0.390625q0.75 0 1.265625 -0.515625q0.515625 -0.515625 0.515625 -1.28125q0 -0.71875 -0.484375 -1.1875q-0.46875 -0.484375 -1.203125 -0.484375q-0.296875 0 -0.75 0.125l0.125 -0.9375q0.109375 0.015625 0.171875 0.015625q0.671875 0 1.203125 -0.34375q0.546875 -0.359375 0.546875 -1.09375q0 -0.578125 -0.390625 -0.953125q-0.390625 -0.390625 -1.015625 -0.390625q-0.609375 0 -1.03125 0.390625q-0.40625 0.390625 -0.515625 1.15625l-1.0625 -0.1875q0.1875 -1.046875 0.875 -1.625q0.6875 -0.59375 1.703125 -0.59375q0.703125 0 1.296875 0.3125q0.59375 0.296875 0.90625 0.8125q0.3125 0.515625 0.3125 1.109375q0 0.546875 -0.296875 1.015625q-0.296875 0.453125 -0.875 0.71875q0.75 0.171875 1.171875 0.734375q0.421875 0.546875 0.421875 1.390625q0 1.125 -0.828125 1.90625q-0.8125 0.78125 -2.0625 0.78125q-1.125 0 -1.875 -0.671875q-0.75 -0.6875 -0.859375 -1.75z" fill-rule="nonzero"/><path fill="#000000" fill-opacity="0.0" d="m226.90637 196.23944l42.141724 0l0 34.07875l-42.141724 0z" fill-rule="evenodd"/><path fill="#000000" d="m250.68721 216.78319l0 1.015625l-5.6875 0q0 -0.375 0.125 -0.734375q0.21875 -0.578125 0.6875 -1.140625q0.484375 -0.5625 1.390625 -1.296875q1.40625 -1.15625 1.890625 -1.828125q0.5 -0.671875 0.5 -1.265625q0 -0.625 -0.453125 -1.046875q-0.453125 -0.4375 -1.171875 -0.4375q-0.765625 0 -1.21875 0.453125q-0.453125 0.453125 -0.46875 1.265625l-1.078125 -0.109375q0.109375 -1.21875 0.828125 -1.84375q0.734375 -0.640625 1.96875 -0.640625q1.234375 0 1.953125 0.6875q0.71875 0.6875 0.71875 1.703125q0 0.515625 -0.21875 1.015625q-0.203125 0.484375 -0.703125 1.046875q-0.484375 0.546875 -1.609375 1.5q-0.953125 0.796875 -1.234375 1.09375q-0.265625 0.28125 -0.4375 0.5625l4.21875 0z" fill-rule="nonzero"/><path fill="#000000" fill-opacity="0.0" d="m81.020645 215.25833l42.14174 0l0 34.078735l-42.14174 0z" fill-rule="evenodd"/><path fill="#000000" d="m103.22335 236.81769l-1.046875 0l0 -6.71875q-0.390625 0.359375 -1.015625 0.734375q-0.609375 0.359375 -1.09375 0.53125l0 -1.015625q0.875 -0.421875 1.53125 -1.0q0.671875 -0.59375 0.953125 -1.15625l0.671875 0l0 8.625z" fill-rule="nonzero"/><path fill="#000000" fill-opacity="0.0" d="m125.60734 190.42566l74.23621 0l0 34.078735l-74.23621 0z" fill-rule="evenodd"/><path fill="#000000" d="m150.34752 211.98503l0 -8.59375l1.0625 0l0 4.90625l2.484375 -2.53125l1.375 0l-2.390625 2.296875l2.625 3.921875l-1.296875 0l-2.0625 -3.1875l-0.734375 0.71875l0 2.46875l-1.0625 0zm14.880859 -5.046875l-5.671875 0l0 -0.984375l5.671875 0l0 0.984375zm0 2.609375l-5.671875 0l0 -0.984375l5.671875 0l0 0.984375zm7.873047 2.4375l0 -2.0625l-3.71875 0l0 -0.96875l3.921875 -5.5625l0.859375 0l0 5.5625l1.15625 0l0 0.96875l-1.15625 0l0 2.0625l-1.0625 0zm0 -3.03125l0 -3.859375l-2.6875 3.859375l2.6875 0z" fill-rule="nonzero"/></g></svg>